<?xml version="1.0" encoding="UTF-8" standalone="no"?>
<!-- Created with Inkscape (http://www.inkscape.org/) -->

<svg
   xmlns:dc="http://purl.org/dc/elements/1.1/"
   xmlns:cc="http://creativecommons.org/ns#"
   xmlns:rdf="http://www.w3.org/1999/02/22-rdf-syntax-ns#"
   xmlns:svg="http://www.w3.org/2000/svg"
   xmlns="http://www.w3.org/2000/svg"
   xmlns:sodipodi="http://sodipodi.sourceforge.net/DTD/sodipodi-0.dtd"
   xmlns:inkscape="http://www.inkscape.org/namespaces/inkscape"
   width="512"
   height="512"
   viewBox="0 0 135.46666 135.46667"
   version="1.1"
   id="svg8"
   inkscape:version="0.92.3 (2405546, 2018-03-11)"
   sodipodi:docname="caesar-cipher-logo-512.svg"
   inkscape:export-filename="C:\Users\alore\Documents\Toychest\JavaScript\ReactJS\caesar-shift-cipher\public\caesar-cipher-logo-512.png"
   inkscape:export-xdpi="96"
   inkscape:export-ydpi="96">
  <defs
     id="defs2" />
  <sodipodi:namedview
     id="base"
     pagecolor="#ffffff"
     bordercolor="#666666"
     borderopacity="1.0"
     inkscape:pageopacity="0.0"
     inkscape:pageshadow="2"
     inkscape:zoom="0.98994949"
     inkscape:cx="140.16004"
     inkscape:cy="179.46838"
     inkscape:document-units="mm"
     inkscape:current-layer="layer1"
     showgrid="false"
     units="px"
     inkscape:window-width="1007"
     inkscape:window-height="991"
     inkscape:window-x="952"
     inkscape:window-y="0"
     inkscape:window-maximized="0" />
  <metadata
     id="metadata5">
    <rdf:RDF>
      <cc:Work
         rdf:about="">
        <dc:format>image/svg+xml</dc:format>
        <dc:type
           rdf:resource="http://purl.org/dc/dcmitype/StillImage" />
        <dc:title></dc:title>
      </cc:Work>
    </rdf:RDF>
  </metadata>
  <g
     inkscape:label="Layer 1"
     inkscape:groupmode="layer"
     id="layer1"
     transform="translate(0,-161.53332)">
    <rect
       style="opacity:1;fill:#000000;fill-opacity:1;stroke:none;stroke-width:0.26458332;stroke-miterlimit:4;stroke-dasharray:none;stroke-opacity:1"
       id="rect819"
       width="135.50565"
       height="135.50565"
       x="0"
       y="161.49434" />
    <path
       style="opacity:1;fill:#ffffff;fill-opacity:1;stroke:none;stroke-width:0.85798812;stroke-miterlimit:4;stroke-dasharray:none;stroke-opacity:1"
       d="M 36.365234 36.21875 L 36.365234 475.63477 L 475.78125 475.63477 L 475.78125 36.21875 L 36.365234 36.21875 z M 76.771484 76.625 L 435.375 76.625 L 435.375 435.22852 L 76.771484 435.22852 L 76.771484 76.625 z "
       transform="matrix(0.26458333,0,0,0.26458333,0,161.53332)"
       id="rect821" />
    <g
       aria-label="C"
       style="font-style:normal;font-variant:normal;font-weight:normal;font-stretch:normal;font-size:90.14034271px;line-height:1.25;font-family:'Courier New';-inkscape-font-specification:'Courier New';letter-spacing:0px;word-spacing:0px;fill:#ffffff;fill-opacity:1;stroke:none;stroke-width:2.25350833"
       id="text817">
      <path
         d="m 81.536908,204.15676 q 0.836263,-1.14436 1.804567,-1.71654 1.012319,-0.57218 2.156678,-0.57218 1.980623,0 3.213011,1.36443 1.276401,1.36443 1.276401,4.62145 v 7.65841 q 0,3.25703 -1.276401,4.66547 -1.232388,1.36443 -3.213011,1.36443 -1.804567,0 -2.904913,-1.01232 -1.100346,-1.01232 -1.628512,-3.78519 -0.308097,-1.84858 -1.232388,-2.8609 -1.804567,-1.98062 -5.061591,-3.169 -3.21301,-1.18837 -6.470034,-1.18837 -4.049274,0 -7.438339,1.76055 -3.389066,1.76056 -5.985882,5.7218 -2.596817,3.96125 -2.596817,9.41896 v 5.85384 q 0,6.51405 4.709481,10.87142 4.753495,4.35737 13.160138,4.35737 5.017578,0 8.494671,-1.36443 2.024636,-0.79225 4.313356,-3.12498 1.408443,-1.40844 2.200692,-1.80457 0.792249,-0.44013 1.804567,-0.44013 1.804568,0 3.168997,1.36442 1.364429,1.36443 1.364429,3.21301 0,1.84859 -1.848581,3.96125 -2.684845,3.08097 -6.910173,4.84152 -5.677785,2.37675 -12.543944,2.37675 -8.010519,0 -14.43654,-3.30104 -5.193633,-2.64083 -8.846781,-8.31861 -3.653149,-5.7218 -3.653149,-12.45592 v -6.11792 q 0,-7.04222 3.257024,-13.11613 3.301038,-6.11792 9.110865,-9.41896 5.809827,-3.30104 12.323875,-3.30104 3.917232,0 7.306297,0.92429 3.43308,0.88028 6.382007,2.72886 z"
         style="font-weight:bold;fill:#ffffff;stroke-width:2.25350833"
         id="path1389" />
    </g>
  </g>
</svg>
